<mxfile host="65bd71144e">
    <diagram id="bdGLufFbmblh0Mh4JZoR" name="General">
        <mxGraphModel dx="893" dy="383" grid="1" gridSize="10" guides="1" tooltips="1" connect="1" arrows="1" fold="1" page="1" pageScale="1" pageWidth="1400" pageHeight="850" math="0" shadow="0">
            <root>
                <mxCell id="0"/>
                <mxCell id="1" parent="0"/>
                <mxCell id="6" style="edgeStyle=none;html=1;entryX=0.333;entryY=0.988;entryDx=0;entryDy=0;entryPerimeter=0;" parent="1" source="2" target="4" edge="1">
                    <mxGeometry relative="1" as="geometry"/>
                </mxCell>
                <mxCell id="8" style="edgeStyle=none;html=1;" parent="1" source="2" target="7" edge="1">
                    <mxGeometry relative="1" as="geometry"/>
                </mxCell>
                <mxCell id="2" value="API" style="rounded=1;whiteSpace=wrap;html=1;" parent="1" vertex="1">
                    <mxGeometry x="150" y="160" width="120" height="60" as="geometry"/>
                </mxCell>
                <mxCell id="4" value="Local DB" style="shape=cylinder3;whiteSpace=wrap;html=1;boundedLbl=1;backgroundOutline=1;size=15;" parent="1" vertex="1">
                    <mxGeometry x="280" y="50" width="60" height="80" as="geometry"/>
                </mxCell>
                <mxCell id="7" value="Isolates Runner" style="rounded=1;whiteSpace=wrap;html=1;" parent="1" vertex="1">
                    <mxGeometry x="310" y="160" width="120" height="60" as="geometry"/>
                </mxCell>
                <mxCell id="11" style="edgeStyle=none;html=1;" parent="1" source="10" target="2" edge="1">
                    <mxGeometry relative="1" as="geometry"/>
                </mxCell>
                <mxCell id="10" value="User" style="shape=actor;whiteSpace=wrap;html=1;" parent="1" vertex="1">
                    <mxGeometry x="20" y="155" width="60" height="70" as="geometry"/>
                </mxCell>
                <mxCell id="12" value="Bird Eye view" style="text;html=1;strokeColor=none;fillColor=none;align=center;verticalAlign=middle;whiteSpace=wrap;rounded=0;" parent="1" vertex="1">
                    <mxGeometry x="30" y="10" width="100" height="40" as="geometry"/>
                </mxCell>
                <mxCell id="19" value="" style="ellipse;whiteSpace=wrap;html=1;aspect=fixed;" parent="1" vertex="1">
                    <mxGeometry x="560" y="60" width="240" height="240" as="geometry"/>
                </mxCell>
                <mxCell id="20" value="Isolate" style="ellipse;whiteSpace=wrap;html=1;aspect=fixed;" parent="1" vertex="1">
                    <mxGeometry x="615" y="110" width="130" height="130" as="geometry"/>
                </mxCell>
                <mxCell id="21" value="API" style="text;html=1;strokeColor=none;fillColor=none;align=center;verticalAlign=middle;whiteSpace=wrap;rounded=0;" parent="1" vertex="1">
                    <mxGeometry x="650" y="60" width="60" height="30" as="geometry"/>
                </mxCell>
                <mxCell id="22" value="Storage" style="text;html=1;strokeColor=none;fillColor=none;align=center;verticalAlign=middle;whiteSpace=wrap;rounded=0;" parent="1" vertex="1">
                    <mxGeometry x="640" y="250" width="60" height="30" as="geometry"/>
                </mxCell>
                <mxCell id="24" value="Auth" style="ellipse;whiteSpace=wrap;html=1;aspect=fixed;" parent="1" vertex="1">
                    <mxGeometry x="630" y="120" width="30" height="30" as="geometry"/>
                </mxCell>
                <mxCell id="25" value="Runner" style="ellipse;whiteSpace=wrap;html=1;aspect=fixed;" parent="1" vertex="1">
                    <mxGeometry x="700" y="120" width="30" height="30" as="geometry"/>
                </mxCell>
                <mxCell id="27" value="Manager" style="ellipse;whiteSpace=wrap;html=1;aspect=fixed;" parent="1" vertex="1">
                    <mxGeometry x="630" y="190" width="30" height="30" as="geometry"/>
                </mxCell>
                <mxCell id="28" value="Layers (Onion View" style="text;html=1;strokeColor=none;fillColor=none;align=center;verticalAlign=middle;whiteSpace=wrap;rounded=0;" parent="1" vertex="1">
                    <mxGeometry x="515" y="10" width="100" height="40" as="geometry"/>
                </mxCell>
                <mxCell id="32" value="Ubiquitous Language" style="text;html=1;strokeColor=none;fillColor=none;align=center;verticalAlign=middle;whiteSpace=wrap;rounded=0;" parent="1" vertex="1">
                    <mxGeometry x="880" y="15" width="60" height="30" as="geometry"/>
                </mxCell>
                <mxCell id="33" value="Isolate" style="swimlane;childLayout=stackLayout;horizontal=1;startSize=30;horizontalStack=0;rounded=1;fontSize=14;fontStyle=0;strokeWidth=2;resizeParent=0;resizeLast=1;shadow=0;dashed=0;align=center;" parent="1" vertex="1">
                    <mxGeometry x="1040" y="80" width="100" height="120" as="geometry"/>
                </mxCell>
                <mxCell id="34" value="+ id&#10;+name&#10;+ description&#10;+ source" style="align=left;strokeColor=none;fillColor=none;spacingLeft=4;fontSize=12;verticalAlign=top;resizable=0;rotatable=0;part=1;" parent="33" vertex="1">
                    <mxGeometry y="30" width="100" height="90" as="geometry"/>
                </mxCell>
                <mxCell id="35" value="Executed Isolate" style="swimlane;childLayout=stackLayout;horizontal=1;startSize=30;horizontalStack=0;rounded=1;fontSize=14;fontStyle=0;strokeWidth=2;resizeParent=0;resizeLast=1;shadow=0;dashed=0;align=center;" parent="1" vertex="1">
                    <mxGeometry x="1180" y="80" width="100" height="120" as="geometry"/>
                </mxCell>
                <mxCell id="36" value="+profileId&#10;+isolateId&#10;+inputString&#10;+outputString" style="align=left;strokeColor=none;fillColor=none;spacingLeft=4;fontSize=12;verticalAlign=top;resizable=0;rotatable=0;part=1;" parent="35" vertex="1">
                    <mxGeometry y="30" width="100" height="90" as="geometry"/>
                </mxCell>
                <mxCell id="37" value="Profile" style="swimlane;childLayout=stackLayout;horizontal=1;startSize=30;horizontalStack=0;rounded=1;fontSize=14;fontStyle=0;strokeWidth=2;resizeParent=0;resizeLast=1;shadow=0;dashed=0;align=center;" parent="1" vertex="1">
                    <mxGeometry x="890" y="80" width="100" height="120" as="geometry"/>
                </mxCell>
                <mxCell id="38" value="+ id&#10;+ name&#10;+ token&#10;+limits" style="align=left;strokeColor=none;fillColor=none;spacingLeft=4;fontSize=12;verticalAlign=top;resizable=0;rotatable=0;part=1;" parent="37" vertex="1">
                    <mxGeometry y="30" width="100" height="90" as="geometry"/>
                </mxCell>
                <mxCell id="42" value="Profile&amp;nbsp; creates, executes and deletes isolates.&lt;br&gt;&lt;br&gt;Isolates get executed and their executed state is stored" style="text;html=1;strokeColor=none;fillColor=none;align=left;verticalAlign=middle;whiteSpace=wrap;rounded=0;" parent="1" vertex="1">
                    <mxGeometry x="890" y="220" width="190" height="110" as="geometry"/>
                </mxCell>
                <mxCell id="43" value="Execute Isolate Code Flow" style="text;html=1;strokeColor=none;fillColor=none;align=center;verticalAlign=middle;whiteSpace=wrap;rounded=0;" parent="1" vertex="1">
                    <mxGeometry x="20" y="370" width="140" height="40" as="geometry"/>
                </mxCell>
                <mxCell id="54" style="edgeStyle=none;html=1;entryX=0;entryY=0.5;entryDx=0;entryDy=0;" parent="1" source="44" target="51" edge="1">
                    <mxGeometry relative="1" as="geometry"/>
                </mxCell>
                <mxCell id="55" style="edgeStyle=none;html=1;entryX=0;entryY=0.5;entryDx=0;entryDy=0;" parent="1" source="44" target="53" edge="1">
                    <mxGeometry relative="1" as="geometry"/>
                </mxCell>
                <mxCell id="44" value="Isolate Repository" style="rounded=1;whiteSpace=wrap;html=1;" parent="1" vertex="1">
                    <mxGeometry x="540" y="540" width="120" height="60" as="geometry"/>
                </mxCell>
                <mxCell id="57" style="edgeStyle=none;html=1;entryX=0;entryY=0.75;entryDx=0;entryDy=0;" parent="1" source="45" target="52" edge="1">
                    <mxGeometry relative="1" as="geometry"/>
                </mxCell>
                <mxCell id="61" style="edgeStyle=none;html=1;" parent="1" source="45" target="44" edge="1">
                    <mxGeometry relative="1" as="geometry"/>
                </mxCell>
                <mxCell id="62" style="edgeStyle=none;html=1;" parent="1" source="45" target="59" edge="1">
                    <mxGeometry relative="1" as="geometry"/>
                </mxCell>
                <mxCell id="45" value="IsolateManager" style="rounded=1;whiteSpace=wrap;html=1;" parent="1" vertex="1">
                    <mxGeometry x="220" y="540" width="120" height="60" as="geometry"/>
                </mxCell>
                <mxCell id="49" style="edgeStyle=none;html=1;entryX=0.5;entryY=1;entryDx=0;entryDy=0;" parent="1" source="46" target="48" edge="1">
                    <mxGeometry relative="1" as="geometry"/>
                </mxCell>
                <mxCell id="60" style="edgeStyle=none;html=1;entryX=0;entryY=0.5;entryDx=0;entryDy=0;" parent="1" source="46" target="45" edge="1">
                    <mxGeometry relative="1" as="geometry"/>
                </mxCell>
                <mxCell id="46" value="Controller" style="rounded=1;whiteSpace=wrap;html=1;" parent="1" vertex="1">
                    <mxGeometry x="40" y="500" width="120" height="60" as="geometry"/>
                </mxCell>
                <mxCell id="56" style="edgeStyle=none;html=1;entryX=0;entryY=0.5;entryDx=0;entryDy=0;" parent="1" source="48" target="52" edge="1">
                    <mxGeometry relative="1" as="geometry"/>
                </mxCell>
                <mxCell id="48" value="Authenticatior" style="rounded=1;whiteSpace=wrap;html=1;" parent="1" vertex="1">
                    <mxGeometry x="220" y="410" width="120" height="60" as="geometry"/>
                </mxCell>
                <mxCell id="51" value="Isolate Model" style="rounded=1;whiteSpace=wrap;html=1;" parent="1" vertex="1">
                    <mxGeometry x="710" y="520" width="120" height="60" as="geometry"/>
                </mxCell>
                <mxCell id="52" value="Profile Model" style="rounded=1;whiteSpace=wrap;html=1;" parent="1" vertex="1">
                    <mxGeometry x="700" y="410" width="120" height="60" as="geometry"/>
                </mxCell>
                <mxCell id="53" value="Executed Isolate Model" style="rounded=1;whiteSpace=wrap;html=1;" parent="1" vertex="1">
                    <mxGeometry x="690" y="640" width="120" height="60" as="geometry"/>
                </mxCell>
                <mxCell id="63" style="edgeStyle=none;html=1;entryX=-0.033;entryY=0.633;entryDx=0;entryDy=0;entryPerimeter=0;" parent="1" source="59" target="44" edge="1">
                    <mxGeometry relative="1" as="geometry"/>
                </mxCell>
                <mxCell id="59" value="Isolate Runner" style="rounded=1;whiteSpace=wrap;html=1;" parent="1" vertex="1">
                    <mxGeometry x="320" y="650" width="120" height="60" as="geometry"/>
                </mxCell>
                <mxCell id="Sm8crVJ1xdBKoFlzH7P_-63" value="API" style="text;html=1;strokeColor=none;fillColor=none;align=center;verticalAlign=middle;whiteSpace=wrap;rounded=0;" parent="1" vertex="1">
                    <mxGeometry x="890" y="370" width="140" height="40" as="geometry"/>
                </mxCell>
                <mxCell id="Sm8crVJ1xdBKoFlzH7P_-64" value="&lt;span style=&quot;text-align: left&quot;&gt;POST/GET/DELETE&amp;nbsp;&amp;nbsp;&lt;/span&gt;&lt;span style=&quot;text-align: left&quot;&gt;/isolate no update&lt;/span&gt;&lt;span style=&quot;text-align: left&quot;&gt;&lt;br&gt;&lt;/span&gt;&lt;div style=&quot;text-align: left&quot;&gt;&lt;span&gt;POST /isolate:run&amp;nbsp;&lt;/span&gt;&lt;/div&gt;" style="text;html=1;strokeColor=none;fillColor=none;align=center;verticalAlign=middle;whiteSpace=wrap;rounded=0;" parent="1" vertex="1">
                    <mxGeometry x="950" y="410" width="280" height="80" as="geometry"/>
                </mxCell>
                <mxCell id="Sm8crVJ1xdBKoFlzH7P_-65" value="Headers" style="text;html=1;strokeColor=none;fillColor=none;align=center;verticalAlign=middle;whiteSpace=wrap;rounded=0;" parent="1" vertex="1">
                    <mxGeometry x="900" y="500" width="140" height="40" as="geometry"/>
                </mxCell>
                <mxCell id="Sm8crVJ1xdBKoFlzH7P_-66" value="&lt;div style=&quot;text-align: left&quot;&gt;&lt;span&gt;Authorization: Bearer &amp;lt;OTP&amp;gt;&lt;/span&gt;&lt;/div&gt;&lt;div style=&quot;text-align: left&quot;&gt;&lt;span&gt;XProfile: &amp;lt;profileId&amp;gt;&lt;/span&gt;&lt;/div&gt;&lt;div style=&quot;text-align: left&quot;&gt;&lt;br&gt;&lt;/div&gt;" style="text;html=1;strokeColor=none;fillColor=none;align=center;verticalAlign=middle;whiteSpace=wrap;rounded=0;" parent="1" vertex="1">
                    <mxGeometry x="970" y="540" width="280" height="80" as="geometry"/>
                </mxCell>
            </root>
        </mxGraphModel>
    </diagram>
    <diagram id="voJFn-5Nc-53CdJ_hb5G" name="API">
        <mxGraphModel dx="893" dy="1131" grid="1" gridSize="10" guides="1" tooltips="1" connect="1" arrows="1" fold="1" page="1" pageScale="1" pageWidth="1400" pageHeight="850" math="0" shadow="0">
            <root>
                <mxCell id="SBt2DDi_xRYRnVNfj4ru-0"/>
                <mxCell id="SBt2DDi_xRYRnVNfj4ru-1" parent="SBt2DDi_xRYRnVNfj4ru-0"/>
            </root>
        </mxGraphModel>
    </diagram>
</mxfile>